<?xml version="1.0" encoding="UTF-8" standalone="no"?>
<!DOCTYPE svg PUBLIC "-//W3C//DTD SVG 1.1//EN" "http://www.w3.org/Graphics/SVG/1.1/DTD/svg11.dtd">
<svg width="100%" height="100%" viewBox="0 0 120 68" version="1.1" xmlns="http://www.w3.org/2000/svg" xmlns:xlink="http://www.w3.org/1999/xlink" xml:space="preserve" xmlns:serif="http://www.serif.com/" style="fill-rule:evenodd;clip-rule:evenodd;stroke-linejoin:round;stroke-miterlimit:2;">
    <g transform="matrix(1,0,0,1,-90.011,-90.8844)">
        <g id="surface1" transform="matrix(0.8,0,0,0.8,0,0)">
            <g>
                <path d="M125.805,145.98C125.855,144.867 125.828,141.523 123.453,138.863C120.34,135.367 114.391,134.48 112.91,136.406C111.785,137.875 113.266,141.016 114.723,142.738C118.477,147.148 125.141,146.082 125.805,145.98Z" style="fill:rgb(255,153,59);fill-rule:nonzero;"/>
            </g>
            <g>
                <clipPath id="_clip1">
                    <rect x="249" y="135" width="13.5" height="12"/>
                </clipPath>
                <g clip-path="url(#_clip1)">
                    <path d="M249.223,145.98C249.172,144.867 249.195,141.523 251.57,138.863C254.688,135.367 260.637,134.48 262.117,136.406C263.242,137.875 261.758,141.016 260.305,142.738C256.551,147.148 249.887,146.082 249.223,145.98Z" style="fill:rgb(255,153,59);fill-rule:nonzero;"/>
                </g>
            </g>
            <g>
                <path d="M227.262,144.742L161.02,144.742C157.953,144.715 156.449,144.715 156.141,144.59C153.563,143.398 155.605,132.227 156.676,127.086C155.098,130.164 153.719,133.332 152.539,136.582C150.828,141.398 150.422,143.473 148.531,144.387C146.641,145.297 143.348,144.258 141.664,142.41C139.34,139.879 138.98,135.57 140.973,131.898L144.164,122.5C145.441,118.699 149.273,113.605 158.184,113.605L220.824,113.605C228.309,113.605 231.449,118.75 232.699,122.625L235.762,132.023C237.781,138.254 233.441,144.742 227.262,144.742Z" style="fill:rgb(255,153,59);fill-rule:nonzero;"/>
            </g>
            <path d="M158.387,173.266C158.234,173.492 152.156,170.73 146.027,166.02C136.504,158.648 131.168,149.832 131.422,149.629C131.68,149.426 133.824,152.418 139.391,157.789C141.281,159.586 144.422,162.625 148.734,166.07C154.582,170.781 158.492,173.063 158.387,173.266Z" style="fill:rgb(255,153,59);fill-rule:nonzero;"/>
            <path d="M215.77,173.266C215.922,173.492 222,170.73 228.129,166.02C237.652,158.648 242.992,149.832 242.734,149.629C242.48,149.426 240.336,152.418 234.742,157.789C232.879,159.586 229.738,162.625 225.422,166.07C219.574,170.781 215.641,173.063 215.77,173.266Z" style="fill:rgb(255,153,59);fill-rule:nonzero;"/>
            <path d="M149.375,174.813C148.965,176.406 141,176.434 134.129,173.898C132.035,173.141 123.047,169.871 120.953,162.27C120.723,161.434 119.855,158.32 121.082,157.484C122.793,156.266 126.902,160.801 135.023,166.148C144.316,172.254 149.73,173.469 149.375,174.813Z" style="fill:rgb(255,153,59);fill-rule:nonzero;"/>
            <path d="M225.934,174.813C226.34,176.406 234.309,176.434 241.176,173.898C243.27,173.141 252.262,169.871 254.355,162.27C254.582,161.434 255.453,158.32 254.227,157.484C252.516,156.266 248.402,160.801 240.285,166.148C230.988,172.254 225.574,173.469 225.934,174.813Z" style="fill:rgb(255,153,59);fill-rule:nonzero;"/>
            <path d="M220.672,179.117C219.879,178.281 218.859,177.191 217.148,176.684C216.344,176.453 215.527,176.387 214.695,176.484L187.961,176.66L161.25,176.484C160.418,176.387 159.602,176.453 158.797,176.684C157.086,177.191 156.066,178.281 155.273,179.117C153.664,180.922 152.594,183 152.055,185.348C152.703,184.164 153.512,183.102 154.48,182.156C155.453,181.195 156.652,180.055 158.543,179.473C159.125,179.289 159.719,179.18 160.328,179.145L181.73,179.195L194.215,179.195L215.617,179.145C216.227,179.18 216.82,179.289 217.402,179.473C219.293,180.055 220.492,181.195 221.465,182.156C222.43,183.102 223.238,184.164 223.891,185.348C223.352,183 222.281,180.922 220.672,179.117Z" style="fill:rgb(255,153,59);fill-rule:nonzero;"/>
            <path d="M247.844,192.695C245.871,193.906 243.754,194.742 241.484,195.203C238.969,195.738 236.441,195.805 233.898,195.406C231.883,195.129 232.266,194.875 225.32,192.824C222.484,191.988 221.082,191.633 219.266,191.379C217.699,191.156 216.125,191.047 214.543,191.051L161.402,191.051C159.813,191.047 158.227,191.156 156.652,191.379C154.863,191.633 153.461,191.988 150.625,192.824C143.68,194.875 144.063,195.129 142.047,195.406C139.504,195.805 136.977,195.738 134.461,195.203C133.066,194.926 131.719,194.5 130.418,193.922C129.121,193.344 127.902,192.633 126.766,191.781C125.625,190.934 124.598,189.973 123.676,188.895C122.758,187.816 121.969,186.652 121.309,185.398C122.223,188.563 123.898,191.254 126.34,193.48C129.941,196.699 133.848,197.484 135.816,197.84C138.691,198.117 141.551,198.008 144.395,197.508C146.703,197.051 148.961,196.41 151.16,195.582L151.875,195.305L152.926,194.926C154.828,194.336 156.777,194.023 158.773,193.988L217.172,193.988C219.168,194.023 221.117,194.336 223.02,194.926L224.066,195.305L224.781,195.582C226.984,196.41 229.242,197.051 231.551,197.508C234.395,198.008 237.254,198.117 240.129,197.84C242.098,197.484 246.004,196.699 249.605,193.48C252.047,191.254 253.723,188.563 254.637,185.398C253.023,188.43 250.758,190.863 247.844,192.695Z" style="fill:rgb(255,153,59);fill-rule:nonzero;"/>
        </g>
    </g>
</svg>
